<svg width="35" height="23" viewBox="0 0 35 23" fill="none" xmlns="http://www.w3.org/2000/svg">
<path d="M12.3495 4.67922C12.7791 4.67922 13.2087 4.68267 13.6382 4.67784C13.8482 4.67508 13.9048 4.72472 13.7846 4.93949C13.0855 6.18911 12.3979 7.44597 11.704 8.69904C11.2187 9.57458 10.7312 10.4488 10.2415 11.3217C10.1517 11.482 10.1749 11.6292 10.258 11.7778C11.0923 13.2735 11.9279 14.7682 12.7606 16.265C13.1014 16.8773 13.4289 17.4978 13.776 18.1062C13.8969 18.3182 13.8287 18.3875 13.6303 18.3865C12.7616 18.3823 11.8932 18.371 11.0244 18.3654C10.8896 18.3644 10.8095 18.2937 10.7466 18.18C9.86458 16.5849 8.98161 14.9902 8.09797 13.3962C7.78796 12.8353 7.47564 12.2756 7.16102 11.7174C7.09743 11.6047 7.06464 11.5089 7.13618 11.381C8.33677 9.22992 9.53503 7.07746 10.729 4.92225C10.8091 4.77747 10.9125 4.72921 11.0619 4.73024C11.4911 4.73369 11.9203 4.73162 12.3495 4.73162V4.67922Z" fill="white"/>
<path d="M22.8544 4.73137C23.2839 4.73137 23.7135 4.73447 24.1427 4.72964C24.3067 4.72792 24.4067 4.79169 24.4915 4.94544C25.5917 6.93656 26.684 8.93286 27.815 10.905C28.075 11.359 28.0919 11.6879 27.823 12.1491C26.9397 13.6628 26.109 15.2096 25.2579 16.7436C24.9956 17.2162 24.7296 17.6868 24.4723 18.1625C24.3968 18.3021 24.3007 18.3669 24.1454 18.3676C23.3055 18.3714 22.4655 18.3859 21.6256 18.3869C21.3398 18.3872 21.3123 18.3321 21.4571 18.0687C22.1954 16.7244 22.9364 15.3817 23.68 14.0406C24.103 13.2784 24.5319 12.5197 24.9595 11.7606C25.0601 11.5821 25.0224 11.4321 24.925 11.257C23.7647 9.17311 22.6081 7.08695 21.4554 4.99853C21.2931 4.70517 21.3077 4.68276 21.6236 4.68138C22.0337 4.68 22.444 4.68104 22.8544 4.68104V4.73137Z" fill="white"/>
<path d="M35.0031 10.5797C35.0087 10.3239 34.9236 10.2301 34.6742 10.2125C33.8926 10.1577 33.1672 9.9295 32.5476 9.39966C32.5333 9.38725 32.5231 9.37415 32.5095 9.36174C32.3684 9.10803 32.226 8.85534 32.0849 8.60163C32.0776 8.54785 32.0657 8.49752 32.0644 8.43823H31.9938C31.4745 7.50161 30.9562 6.56431 30.4365 5.62804C29.4737 3.8927 28.5017 2.16322 27.5548 0.418578C27.3869 0.109361 27.1835 0.0376588 26.8735 0.0390377C24.6562 0.04869 22.4391 0.0424851 20.2218 0.0459323C19.8184 0.046277 19.4203 -0.073342 19.0069 0.0721314C18.837 0.132113 18.7493 0.197955 18.7287 0.352392C18.6506 0.93394 18.4903 1.49584 18.3691 2.0667C18.3154 2.32042 18.2574 2.57345 18.2031 2.82682H25.1851V2.82923C25.3129 2.82854 25.4404 2.82958 25.5683 2.82923C25.7299 2.82854 25.8299 2.86646 25.9164 3.02779C26.3337 3.80514 26.7682 4.57284 27.1958 5.34433C28.2987 7.33373 29.3979 9.32486 30.5081 11.3098C30.6074 11.4873 30.5965 11.6118 30.5014 11.7772C30.1825 12.3326 29.8771 12.8965 29.5658 13.4571C28.3646 15.6209 27.1583 17.782 25.968 19.9527C25.8408 20.1843 25.7008 20.2429 25.4626 20.2416C23.7411 20.2319 22.0195 20.2412 20.2979 20.2309H20.2155C19.9442 20.2295 19.8654 20.3209 19.8717 20.5966C19.8879 21.2975 19.8873 21.9997 19.872 22.7008C19.8664 22.9494 19.9515 23.0062 20.1741 23.0045C21.3266 22.9945 22.4792 23 23.6318 23C24.7847 23 25.9372 22.999 27.0898 23.0011C27.2421 23.0014 27.3604 22.9869 27.4525 22.8197C28.3844 21.1247 29.3264 19.4356 30.2646 17.7444C30.8644 16.6633 31.4632 15.5819 32.063 14.5012H32.0637V14.5002C32.2618 14.1427 32.4611 13.7866 32.6599 13.4298C33.2537 12.9513 33.9664 12.7752 34.7067 12.6814C34.959 12.6497 35.0047 12.547 35.0017 12.3236C34.9938 11.7424 34.9902 11.1609 35.0031 10.5797Z" fill="white"/>
<path d="M14.0492 20.2389C12.5939 20.2352 11.1383 20.2345 9.68304 20.2396C9.50651 20.2403 9.40582 20.18 9.31441 20.0142C7.78516 17.2412 6.24973 14.4719 4.70813 11.7063C4.63229 11.5702 4.63461 11.4919 4.70747 11.3613C6.22932 8.63072 7.75083 5.89982 9.25381 3.15789C9.40119 2.88935 9.55586 2.82627 9.82711 2.82834C10.0301 2.82937 10.2332 2.82868 10.4362 2.82972V2.82765H15.1418C15.3399 2.80352 15.429 2.70286 15.4243 2.44983C15.4121 1.76883 15.4121 1.08765 15.4243 0.406653C15.4286 0.143629 15.3336 0.0426249 15.0829 0.0429696C12.7777 0.047451 10.4726 0.046417 8.16715 0.0440039C7.98168 0.0436592 7.8641 0.11743 7.77004 0.289792C7.11392 1.49601 6.45252 2.69911 5.78584 3.89905C4.71343 5.8295 3.6377 7.75823 2.56198 9.68696C2.0208 10.0348 1.39915 10.1772 0.757618 10.2585C0.505247 10.2906 0.459541 10.393 0.462522 10.6163C0.472679 11.1976 0.472237 11.779 0.461197 12.3603C0.455567 12.6164 0.540685 12.7098 0.790076 12.7274C1.39087 12.7695 1.95754 12.9156 2.46924 13.2207L3.99308 15.9664C5.24798 18.2268 6.5052 20.4854 7.75514 22.7485C7.8545 22.9281 7.96479 23.0054 8.16947 23.005C10.826 22.9985 13.4829 22.9985 16.1397 23.0043C16.3543 23.005 16.4477 22.9337 16.4974 22.7106C16.6809 21.8834 16.8677 21.057 17.0578 20.2314H14.1568C14.1212 20.2369 14.0852 20.2395 14.0492 20.2389Z" fill="white"/>
<path d="M20.5064 4.7832H17.7766C17.7107 5.08104 17.6481 5.37992 17.5812 5.67776C17.2633 7.09595 16.9311 8.51104 16.6132 9.92958C16.3439 11.1316 16.0915 12.3385 15.8219 13.5406C15.506 14.9488 15.1791 16.3542 14.8578 17.761L14.7402 18.274H17.519C17.779 17.1481 18.0048 16.0129 18.2509 14.8829C18.5709 13.4123 18.8888 11.9414 19.2167 10.4729C19.5379 9.03468 19.8718 7.59959 20.1977 6.16244C20.302 5.70293 20.403 5.24272 20.5064 4.7832Z" fill="white"/>
</svg>
